<?xml version="1.0" encoding="utf-8" standalone="no"?>
<!DOCTYPE svg PUBLIC "-//W3C//DTD SVG 1.1//EN"
  "http://www.w3.org/Graphics/SVG/1.1/DTD/svg11.dtd">
<svg xmlns:xlink="http://www.w3.org/1999/xlink" width="924.252pt" height="157.16pt" viewBox="0 0 924.252 157.16" xmlns="http://www.w3.org/2000/svg" version="1.1">
 <metadata>
  <rdf:RDF xmlns:dc="http://purl.org/dc/elements/1.1/" xmlns:cc="http://creativecommons.org/ns#" xmlns:rdf="http://www.w3.org/1999/02/22-rdf-syntax-ns#">
   <cc:Work>
    <dc:type rdf:resource="http://purl.org/dc/dcmitype/StillImage"/>
    <dc:date>2025-03-21T10:32:17.692971</dc:date>
    <dc:format>image/svg+xml</dc:format>
    <dc:creator>
     <cc:Agent>
      <dc:title>Matplotlib v3.9.2, https://matplotlib.org/</dc:title>
     </cc:Agent>
    </dc:creator>
   </cc:Work>
  </rdf:RDF>
 </metadata>
 <defs>
  <style type="text/css">*{stroke-linejoin: round; stroke-linecap: butt}</style>
 </defs>
 <g id="figure_1">
  <g id="patch_1">
   <path d="M 0 157.16 
L 924.252 157.16 
L 924.252 0 
L 0 0 
z
" style="fill: #ffffff"/>
  </g>
  <g id="axes_1">
   <g id="patch_2">
    <path d="M 106.872 44.48 
C 111.645656 44.48 116.224438 42.583406 119.599922 39.207922 
C 122.975406 35.832438 124.872 31.253656 124.872 26.48 
C 124.872 21.706344 122.975406 17.127562 119.599922 13.752078 
C 116.224438 10.376594 111.645656 8.48 106.872 8.48 
C 102.098344 8.48 97.519562 10.376594 94.144078 13.752078 
C 90.768594 17.127562 88.872 21.706344 88.872 26.48 
C 88.872 31.253656 90.768594 35.832438 94.144078 39.207922 
C 97.519562 42.583406 102.098344 44.48 106.872 44.48 
L 106.872 44.48 
z
" clip-path="url(#p8d6b6ff94e)" style="fill: none; stroke: #000000; stroke-width: 2; stroke-linejoin: miter"/>
   </g>
   <g id="line2d_1">
    <path d="M 16.872 26.48 
L 52.872 26.48 
L 88.872 26.48 
" clip-path="url(#p8d6b6ff94e)" style="fill: none; stroke: #000000; stroke-width: 2; stroke-linecap: round"/>
   </g>
   <g id="line2d_2">
    <path d="M 124.872 26.48 
L 178.872 26.48 
L 223.872 26.48 
" clip-path="url(#p8d6b6ff94e)" style="fill: none; stroke: #000000; stroke-width: 2; stroke-linecap: round"/>
   </g>
   <g id="patch_3">
    <path d="M 223.872 23.78 
L 232.872 26.48 
L 223.872 29.18 
z
" clip-path="url(#p8d6b6ff94e)"/>
   </g>
   <g id="line2d_3">
    <path d="M 232.872 26.48 
L 232.872 8.48 
L 376.872 8.48 
L 376.872 44.48 
L 232.872 44.48 
L 232.872 26.48 
" clip-path="url(#p8d6b6ff94e)" style="fill: none; stroke: #000000; stroke-width: 2; stroke-linecap: round"/>
   </g>
   <g id="line2d_4">
    <path d="M 376.872 26.48 
L 412.872 26.48 
L 448.872 26.48 
" clip-path="url(#p8d6b6ff94e)" style="fill: none; stroke: #000000; stroke-width: 2; stroke-linecap: round"/>
   </g>
   <g id="line2d_5">
    <path d="M 448.872 26.48 
L 484.872 26.48 
L 520.872 26.48 
" clip-path="url(#p8d6b6ff94e)" style="fill: none; stroke: #000000; stroke-width: 2; stroke-linecap: round"/>
   </g>
   <g id="line2d_6">
    <path d="M 448.872 26.48 
L 448.872 80.48 
L 448.872 134.48 
" clip-path="url(#p8d6b6ff94e)" style="fill: none; stroke: #000000; stroke-width: 2; stroke-linecap: round"/>
   </g>
   <g id="line2d_7">
    <path d="M 448.872 134.48 
L 412.872 134.48 
L 385.872 134.48 
" clip-path="url(#p8d6b6ff94e)" style="fill: none; stroke: #000000; stroke-width: 2; stroke-linecap: round"/>
   </g>
   <g id="patch_4">
    <path d="M 385.872 137.18 
L 376.872 134.48 
L 385.872 131.78 
z
" clip-path="url(#p8d6b6ff94e)"/>
   </g>
   <g id="line2d_8">
    <path d="M 232.872 134.48 
L 232.872 116.48 
L 376.872 116.48 
L 376.872 152.48 
L 232.872 152.48 
L 232.872 134.48 
" clip-path="url(#p8d6b6ff94e)" style="fill: none; stroke: #000000; stroke-width: 2; stroke-linecap: round"/>
   </g>
   <g id="line2d_9">
    <path d="M 232.872 134.48 
L 169.872 134.48 
L 106.872 134.48 
" clip-path="url(#p8d6b6ff94e)" style="fill: none; stroke: #000000; stroke-width: 2; stroke-linecap: round"/>
   </g>
   <g id="line2d_10">
    <path d="M 106.872 134.48 
L 106.872 116.48 
L 106.872 98.48 
" clip-path="url(#p8d6b6ff94e)" style="fill: none; stroke: #000000; stroke-width: 2; stroke-linecap: round"/>
   </g>
   <g id="line2d_11">
    <path d="M 106.872 98.48 
L 106.872 71.48 
L 106.872 53.48 
" clip-path="url(#p8d6b6ff94e)" style="fill: none; stroke: #000000; stroke-width: 2; stroke-linecap: round"/>
   </g>
   <g id="patch_5">
    <path d="M 104.172 53.48 
L 106.872 44.48 
L 109.572 53.48 
z
" clip-path="url(#p8d6b6ff94e)"/>
   </g>
   <g id="line2d_12">
    <path d="M 664.872 26.48 
L 682.872 26.48 
L 700.872 26.48 
" clip-path="url(#p8d6b6ff94e)" style="fill: none; stroke: #000000; stroke-width: 2; stroke-linecap: round"/>
   </g>
   <g id="line2d_13">
    <path d="M 700.872 26.48 
L 700.872 8.48 
L 880.872 8.48 
L 880.872 44.48 
L 700.872 44.48 
L 700.872 26.48 
" clip-path="url(#p8d6b6ff94e)" style="fill: none; stroke: #000000; stroke-width: 2; stroke-linecap: round"/>
   </g>
   <g id="line2d_14">
    <path d="M 880.872 26.48 
L 898.872 26.48 
L 916.872 26.48 
" clip-path="url(#p8d6b6ff94e)" style="fill: none; stroke: #000000; stroke-width: 2; stroke-linecap: round"/>
   </g>
   <g id="text_1">
    <!-- $_+$ -->
    <g transform="translate(70.872 34.495) scale(0.16 -0.16)">
     <defs>
      <path id="DejaVuSans-2b" d="M 2944 4013 
L 2944 2272 
L 4684 2272 
L 4684 1741 
L 2944 1741 
L 2944 0 
L 2419 0 
L 2419 1741 
L 678 1741 
L 678 2272 
L 2419 2272 
L 2419 4013 
L 2944 4013 
z
" transform="scale(0.015625)"/>
     </defs>
     <use xlink:href="#DejaVuSans-2b" transform="translate(14.594727 -15.892187) scale(0.7)"/>
    </g>
   </g>
   <g id="text_2">
    <!-- $\Sigma$ -->
    <g transform="translate(100.592 30.343125) scale(0.14 -0.14)">
     <defs>
      <path id="DejaVuSans-3a3" d="M 1353 531 
L 3634 531 
L 3634 0 
L 628 0 
L 628 531 
L 2125 2481 
L 628 4134 
L 628 4666 
L 3578 4666 
L 3578 4134 
L 1353 4134 
L 2850 2494 
L 1353 531 
z
" transform="scale(0.015625)"/>
     </defs>
     <use xlink:href="#DejaVuSans-3a3" transform="translate(0 0.09375)"/>
    </g>
   </g>
   <g id="text_3">
    <!-- $v_\epsilon$ -->
    <g transform="translate(170.872 14.1525) scale(0.16 -0.16)">
     <defs>
      <path id="DejaVuSans-Oblique-76" d="M 459 3500 
L 1069 3500 
L 1581 525 
L 3256 3500 
L 3866 3500 
L 1875 0 
L 1100 0 
L 459 3500 
z
" transform="scale(0.015625)"/>
      <path id="DejaVuSans-Oblique-3b5" d="M 1263 1888 
Q 925 1963 778 2166 
Q 669 2309 669 2503 
Q 669 3034 1175 3344 
Q 1575 3588 2188 3588 
Q 2425 3588 2684 3550 
Q 2944 3513 3234 3438 
L 3134 2916 
Q 2847 3006 2606 3047 
Q 2359 3088 2138 3088 
Q 1766 3088 1522 2944 
Q 1228 2772 1228 2522 
Q 1228 2356 1381 2241 
Q 1563 2103 1925 2103 
L 2409 2103 
L 2319 1628 
L 1856 1628 
Q 1425 1628 1172 1469 
Q 828 1253 828 916 
Q 828 703 1013 563 
Q 1244 388 1716 388 
Q 2006 388 2284 444 
Q 2563 503 2806 619 
L 2700 84 
Q 2403 -3 2131 -47 
Q 1859 -91 1609 -91 
Q 866 -91 516 194 
Q 250 413 250 781 
Q 250 1278 600 1584 
Q 859 1813 1263 1888 
z
" transform="scale(0.015625)"/>
     </defs>
     <use xlink:href="#DejaVuSans-Oblique-76" transform="translate(0 0.3125)"/>
     <use xlink:href="#DejaVuSans-Oblique-3b5" transform="translate(59.179688 -16.09375) scale(0.7)"/>
    </g>
   </g>
   <g id="text_4">
    <!-- $a_1 \cdot v_\epsilon + a_3 \cdot v_\epsilon^3$ -->
    <g transform="translate(249.432 31.44) scale(0.16 -0.16)">
     <defs>
      <path id="DejaVuSans-Oblique-61" d="M 3438 1997 
L 3047 0 
L 2472 0 
L 2578 531 
Q 2325 219 2001 64 
Q 1678 -91 1281 -91 
Q 834 -91 548 182 
Q 263 456 263 884 
Q 263 1497 752 1853 
Q 1241 2209 2100 2209 
L 2900 2209 
L 2931 2363 
Q 2938 2388 2941 2417 
Q 2944 2447 2944 2509 
Q 2944 2788 2717 2942 
Q 2491 3097 2081 3097 
Q 1800 3097 1504 3025 
Q 1209 2953 897 2809 
L 997 3341 
Q 1322 3463 1633 3523 
Q 1944 3584 2234 3584 
Q 2853 3584 3176 3315 
Q 3500 3047 3500 2534 
Q 3500 2431 3484 2292 
Q 3469 2153 3438 1997 
z
M 2816 1759 
L 2241 1759 
Q 1534 1759 1195 1570 
Q 856 1381 856 984 
Q 856 709 1029 553 
Q 1203 397 1509 397 
Q 1978 397 2328 733 
Q 2678 1069 2791 1631 
L 2816 1759 
z
" transform="scale(0.015625)"/>
      <path id="DejaVuSans-31" d="M 794 531 
L 1825 531 
L 1825 4091 
L 703 3866 
L 703 4441 
L 1819 4666 
L 2450 4666 
L 2450 531 
L 3481 531 
L 3481 0 
L 794 0 
L 794 531 
z
" transform="scale(0.015625)"/>
      <path id="DejaVuSans-22c5" d="M 684 2619 
L 1344 2619 
L 1344 1825 
L 684 1825 
L 684 2619 
z
" transform="scale(0.015625)"/>
      <path id="DejaVuSans-33" d="M 2597 2516 
Q 3050 2419 3304 2112 
Q 3559 1806 3559 1356 
Q 3559 666 3084 287 
Q 2609 -91 1734 -91 
Q 1441 -91 1130 -33 
Q 819 25 488 141 
L 488 750 
Q 750 597 1062 519 
Q 1375 441 1716 441 
Q 2309 441 2620 675 
Q 2931 909 2931 1356 
Q 2931 1769 2642 2001 
Q 2353 2234 1838 2234 
L 1294 2234 
L 1294 2753 
L 1863 2753 
Q 2328 2753 2575 2939 
Q 2822 3125 2822 3475 
Q 2822 3834 2567 4026 
Q 2313 4219 1838 4219 
Q 1578 4219 1281 4162 
Q 984 4106 628 3988 
L 628 4550 
Q 988 4650 1302 4700 
Q 1616 4750 1894 4750 
Q 2613 4750 3031 4423 
Q 3450 4097 3450 3541 
Q 3450 3153 3228 2886 
Q 3006 2619 2597 2516 
z
" transform="scale(0.015625)"/>
     </defs>
     <use xlink:href="#DejaVuSans-Oblique-61" transform="translate(0 0.765625)"/>
     <use xlink:href="#DejaVuSans-31" transform="translate(61.279297 -15.640625) scale(0.7)"/>
     <use xlink:href="#DejaVuSans-22c5" transform="translate(128.032227 0.765625)"/>
     <use xlink:href="#DejaVuSans-Oblique-76" transform="translate(179.301758 0.765625)"/>
     <use xlink:href="#DejaVuSans-Oblique-3b5" transform="translate(238.481445 -15.640625) scale(0.7)"/>
     <use xlink:href="#DejaVuSans-2b" transform="translate(298.535156 0.765625)"/>
     <use xlink:href="#DejaVuSans-Oblique-61" transform="translate(401.806641 0.765625)"/>
     <use xlink:href="#DejaVuSans-33" transform="translate(463.085938 -15.640625) scale(0.7)"/>
     <use xlink:href="#DejaVuSans-22c5" transform="translate(529.838867 0.765625)"/>
     <use xlink:href="#DejaVuSans-Oblique-76" transform="translate(581.108398 0.765625)"/>
     <use xlink:href="#DejaVuSans-33" transform="translate(644.754232 39.046875) scale(0.7)"/>
     <use xlink:href="#DejaVuSans-Oblique-3b5" transform="translate(640.288086 -26.578125) scale(0.7)"/>
    </g>
   </g>
   <g id="text_5">
    <!-- $b$ -->
    <g transform="translate(299.752 138.895) scale(0.16 -0.16)">
     <defs>
      <path id="DejaVuSans-Oblique-62" d="M 3169 2138 
Q 3169 2591 2961 2847 
Q 2753 3103 2388 3103 
Q 2122 3103 1889 2973 
Q 1656 2844 1484 2597 
Q 1303 2338 1198 1995 
Q 1094 1653 1094 1313 
Q 1094 881 1298 636 
Q 1503 391 1863 391 
Q 2134 391 2365 517 
Q 2597 644 2772 891 
Q 2950 1147 3059 1487 
Q 3169 1828 3169 2138 
z
M 1381 2969 
Q 1594 3256 1914 3420 
Q 2234 3584 2584 3584 
Q 3122 3584 3439 3221 
Q 3756 2859 3756 2241 
Q 3756 1734 3570 1259 
Q 3384 784 3041 416 
Q 2816 172 2522 40 
Q 2228 -91 1906 -91 
Q 1566 -91 1316 65 
Q 1066 222 909 531 
L 806 0 
L 231 0 
L 1178 4863 
L 1753 4863 
L 1381 2969 
z
" transform="scale(0.015625)"/>
     </defs>
     <use xlink:href="#DejaVuSans-Oblique-62" transform="translate(0 0.015625)"/>
    </g>
   </g>
   <g id="text_6">
    <!-- $v_f$ -->
    <g transform="translate(162.912 127.5525) scale(0.16 -0.16)">
     <defs>
      <path id="DejaVuSans-Oblique-66" d="M 3059 4863 
L 2969 4384 
L 2419 4384 
Q 2106 4384 1964 4261 
Q 1822 4138 1753 3809 
L 1691 3500 
L 2638 3500 
L 2553 3053 
L 1606 3053 
L 1013 0 
L 434 0 
L 1031 3053 
L 481 3053 
L 563 3500 
L 1113 3500 
L 1159 3744 
Q 1278 4363 1576 4613 
Q 1875 4863 2516 4863 
L 3059 4863 
z
" transform="scale(0.015625)"/>
     </defs>
     <use xlink:href="#DejaVuSans-Oblique-76" transform="translate(0 0.3125)"/>
     <use xlink:href="#DejaVuSans-Oblique-66" transform="translate(59.179688 -16.09375) scale(0.7)"/>
    </g>
   </g>
   <g id="text_7">
    <!-- $_-$ -->
    <g transform="translate(112.272 50.695) scale(0.16 -0.16)">
     <defs>
      <path id="DejaVuSans-2212" d="M 678 2272 
L 4684 2272 
L 4684 1741 
L 678 1741 
L 678 2272 
z
" transform="scale(0.015625)"/>
     </defs>
     <use xlink:href="#DejaVuSans-2212" transform="translate(14.594727 -15.85) scale(0.7)"/>
    </g>
   </g>
   <g id="text_8">
    <!-- $\Longleftrightarrow$ -->
    <g transform="translate(559.872 33.9175) scale(0.4 -0.4)">
     <defs>
      <path id="DejaVuSans-27fa" d="M 1250 1678 
L 7925 1678 
L 8253 2006 
L 7925 2334 
L 1250 2334 
L 922 2006 
L 1250 1678 
z
M 7550 1303 
L 1625 1303 
L 1916 1013 
L 1541 638 
L 313 1866 
L 313 2147 
L 1541 3375 
L 1916 3000 
L 1625 2709 
L 7550 2709 
L 7259 3000 
L 7634 3375 
L 8863 2147 
L 8863 1866 
L 7634 638 
L 7259 1013 
L 7550 1303 
z
" transform="scale(0.015625)"/>
     </defs>
     <use xlink:href="#DejaVuSans-27fa" transform="translate(19.482422 0.265625)"/>
    </g>
   </g>
   <g id="text_9">
    <!-- $v_{in}$ -->
    <g transform="translate(672.792 19.5525) scale(0.16 -0.16)">
     <defs>
      <path id="DejaVuSans-Oblique-69" d="M 1172 4863 
L 1747 4863 
L 1606 4134 
L 1031 4134 
L 1172 4863 
z
M 909 3500 
L 1484 3500 
L 800 0 
L 225 0 
L 909 3500 
z
" transform="scale(0.015625)"/>
      <path id="DejaVuSans-Oblique-6e" d="M 3566 2113 
L 3156 0 
L 2578 0 
L 2988 2091 
Q 3016 2238 3031 2350 
Q 3047 2463 3047 2528 
Q 3047 2791 2881 2937 
Q 2716 3084 2419 3084 
Q 1956 3084 1622 2776 
Q 1288 2469 1184 1941 
L 800 0 
L 225 0 
L 903 3500 
L 1478 3500 
L 1363 2950 
Q 1603 3253 1940 3418 
Q 2278 3584 2650 3584 
Q 3113 3584 3367 3334 
Q 3622 3084 3622 2631 
Q 3622 2519 3608 2391 
Q 3594 2263 3566 2113 
z
" transform="scale(0.015625)"/>
     </defs>
     <use xlink:href="#DejaVuSans-Oblique-76" transform="translate(0 0.3125)"/>
     <use xlink:href="#DejaVuSans-Oblique-69" transform="translate(59.179688 -16.09375) scale(0.7)"/>
     <use xlink:href="#DejaVuSans-Oblique-6e" transform="translate(78.62793 -16.09375) scale(0.7)"/>
    </g>
   </g>
   <g id="text_10">
    <!-- $A_1 \cdot v_{in} + A_3 \cdot v_{in}^3 + ...$ -->
    <g transform="translate(708.952 31.6) scale(0.16 -0.16)">
     <defs>
      <path id="DejaVuSans-Oblique-41" d="M 2356 4666 
L 3072 4666 
L 3938 0 
L 3278 0 
L 3084 1197 
L 984 1197 
L 325 0 
L -341 0 
L 2356 4666 
z
M 2584 4044 
L 1275 1722 
L 2988 1722 
L 2584 4044 
z
" transform="scale(0.015625)"/>
      <path id="DejaVuSans-2e" d="M 684 794 
L 1344 794 
L 1344 0 
L 684 0 
L 684 794 
z
" transform="scale(0.015625)"/>
     </defs>
     <use xlink:href="#DejaVuSans-Oblique-41" transform="translate(0 0.70625)"/>
     <use xlink:href="#DejaVuSans-31" transform="translate(68.408203 -15.7) scale(0.7)"/>
     <use xlink:href="#DejaVuSans-22c5" transform="translate(135.161133 0.70625)"/>
     <use xlink:href="#DejaVuSans-Oblique-76" transform="translate(186.430664 0.70625)"/>
     <use xlink:href="#DejaVuSans-Oblique-69" transform="translate(245.610352 -15.7) scale(0.7)"/>
     <use xlink:href="#DejaVuSans-Oblique-6e" transform="translate(265.058594 -15.7) scale(0.7)"/>
     <use xlink:href="#DejaVuSans-2b" transform="translate(331.640625 0.70625)"/>
     <use xlink:href="#DejaVuSans-Oblique-41" transform="translate(434.912109 0.70625)"/>
     <use xlink:href="#DejaVuSans-33" transform="translate(503.320312 -15.7) scale(0.7)"/>
     <use xlink:href="#DejaVuSans-22c5" transform="translate(570.073242 0.70625)"/>
     <use xlink:href="#DejaVuSans-Oblique-76" transform="translate(621.342773 0.70625)"/>
     <use xlink:href="#DejaVuSans-33" transform="translate(684.988607 40.046875) scale(0.7)"/>
     <use xlink:href="#DejaVuSans-Oblique-69" transform="translate(680.522461 -26.6375) scale(0.7)"/>
     <use xlink:href="#DejaVuSans-Oblique-6e" transform="translate(699.970703 -26.6375) scale(0.7)"/>
     <use xlink:href="#DejaVuSans-2b" transform="translate(766.552734 0.70625)"/>
     <use xlink:href="#DejaVuSans-2e" transform="translate(869.824219 0.70625)"/>
     <use xlink:href="#DejaVuSans-2e" transform="translate(921.09375 0.70625)"/>
     <use xlink:href="#DejaVuSans-2e" transform="translate(972.363281 0.70625)"/>
    </g>
   </g>
   <g id="text_11">
    <!-- $v_{out}$ -->
    <g transform="translate(884.712 19.5525) scale(0.16 -0.16)">
     <defs>
      <path id="DejaVuSans-Oblique-6f" d="M 1625 -91 
Q 1009 -91 651 289 
Q 294 669 294 1325 
Q 294 1706 417 2101 
Q 541 2497 738 2766 
Q 1047 3184 1428 3384 
Q 1809 3584 2291 3584 
Q 2888 3584 3255 3212 
Q 3622 2841 3622 2241 
Q 3622 1825 3500 1412 
Q 3378 1000 3181 728 
Q 2875 309 2494 109 
Q 2113 -91 1625 -91 
z
M 891 1344 
Q 891 869 1089 633 
Q 1288 397 1691 397 
Q 2269 397 2648 901 
Q 3028 1406 3028 2181 
Q 3028 2634 2825 2865 
Q 2622 3097 2228 3097 
Q 1903 3097 1650 2945 
Q 1397 2794 1197 2484 
Q 1050 2253 970 1956 
Q 891 1659 891 1344 
z
" transform="scale(0.015625)"/>
      <path id="DejaVuSans-Oblique-75" d="M 428 1388 
L 838 3500 
L 1416 3500 
L 1006 1409 
Q 975 1256 961 1147 
Q 947 1038 947 966 
Q 947 700 1109 554 
Q 1272 409 1569 409 
Q 2031 409 2368 721 
Q 2706 1034 2809 1563 
L 3194 3500 
L 3769 3500 
L 3091 0 
L 2516 0 
L 2631 550 
Q 2388 244 2052 76 
Q 1716 -91 1338 -91 
Q 878 -91 622 161 
Q 366 413 366 863 
Q 366 956 381 1097 
Q 397 1238 428 1388 
z
" transform="scale(0.015625)"/>
      <path id="DejaVuSans-Oblique-74" d="M 2706 3500 
L 2619 3053 
L 1472 3053 
L 1100 1153 
Q 1081 1047 1072 975 
Q 1063 903 1063 863 
Q 1063 663 1183 572 
Q 1303 481 1569 481 
L 2150 481 
L 2053 0 
L 1503 0 
Q 991 0 739 200 
Q 488 400 488 806 
Q 488 878 497 964 
Q 506 1050 525 1153 
L 897 3053 
L 409 3053 
L 500 3500 
L 978 3500 
L 1172 4494 
L 1747 4494 
L 1556 3500 
L 2706 3500 
z
" transform="scale(0.015625)"/>
     </defs>
     <use xlink:href="#DejaVuSans-Oblique-76" transform="translate(0 0.3125)"/>
     <use xlink:href="#DejaVuSans-Oblique-6f" transform="translate(59.179688 -16.09375) scale(0.7)"/>
     <use xlink:href="#DejaVuSans-Oblique-75" transform="translate(102.006836 -16.09375) scale(0.7)"/>
     <use xlink:href="#DejaVuSans-Oblique-74" transform="translate(146.37207 -16.09375) scale(0.7)"/>
    </g>
   </g>
   <g id="patch_6">
    <path d="M 16.872 29.18 
C 17.588048 29.18 18.274866 28.895511 18.781188 28.389188 
C 19.287511 27.882866 19.572 27.196048 19.572 26.48 
C 19.572 25.763952 19.287511 25.077134 18.781188 24.570812 
C 18.274866 24.064489 17.588048 23.78 16.872 23.78 
C 16.155952 23.78 15.469134 24.064489 14.962812 24.570812 
C 14.456489 25.077134 14.172 25.763952 14.172 26.48 
C 14.172 27.196048 14.456489 27.882866 14.962812 28.389188 
C 15.469134 28.895511 16.155952 29.18 16.872 29.18 
z
" clip-path="url(#p8d6b6ff94e)" style="fill: #ffffff; stroke: #000000; stroke-width: 2; stroke-linejoin: miter"/>
   </g>
   <g id="text_12">
    <!-- $v_{in}$ -->
    <g transform="translate(6.792 16.8525) scale(0.16 -0.16)">
     <use xlink:href="#DejaVuSans-Oblique-76" transform="translate(0 0.3125)"/>
     <use xlink:href="#DejaVuSans-Oblique-69" transform="translate(59.179688 -16.09375) scale(0.7)"/>
     <use xlink:href="#DejaVuSans-Oblique-6e" transform="translate(78.62793 -16.09375) scale(0.7)"/>
    </g>
   </g>
   <g id="patch_7">
    <path d="M 448.872 29.18 
C 449.588048 29.18 450.274866 28.895511 450.781188 28.389188 
C 451.287511 27.882866 451.572 27.196048 451.572 26.48 
C 451.572 25.763952 451.287511 25.077134 450.781188 24.570812 
C 450.274866 24.064489 449.588048 23.78 448.872 23.78 
C 448.155952 23.78 447.469134 24.064489 446.962812 24.570812 
C 446.456489 25.077134 446.172 25.763952 446.172 26.48 
C 446.172 27.196048 446.456489 27.882866 446.962812 28.389188 
C 447.469134 28.895511 448.155952 29.18 448.872 29.18 
z
" clip-path="url(#p8d6b6ff94e)" style="stroke: #000000; stroke-width: 2; stroke-linejoin: miter"/>
   </g>
   <g id="patch_8">
    <path d="M 520.872 29.18 
C 521.588048 29.18 522.274866 28.895511 522.781188 28.389188 
C 523.287511 27.882866 523.572 27.196048 523.572 26.48 
C 523.572 25.763952 523.287511 25.077134 522.781188 24.570812 
C 522.274866 24.064489 521.588048 23.78 520.872 23.78 
C 520.155952 23.78 519.469134 24.064489 518.962812 24.570812 
C 518.456489 25.077134 518.172 25.763952 518.172 26.48 
C 518.172 27.196048 518.456489 27.882866 518.962812 28.389188 
C 519.469134 28.895511 520.155952 29.18 520.872 29.18 
z
" clip-path="url(#p8d6b6ff94e)" style="fill: #ffffff; stroke: #000000; stroke-width: 2; stroke-linejoin: miter"/>
   </g>
   <g id="text_13">
    <!-- $v_{out}$ -->
    <g transform="translate(506.712 16.8525) scale(0.16 -0.16)">
     <use xlink:href="#DejaVuSans-Oblique-76" transform="translate(0 0.3125)"/>
     <use xlink:href="#DejaVuSans-Oblique-6f" transform="translate(59.179688 -16.09375) scale(0.7)"/>
     <use xlink:href="#DejaVuSans-Oblique-75" transform="translate(102.006836 -16.09375) scale(0.7)"/>
     <use xlink:href="#DejaVuSans-Oblique-74" transform="translate(146.37207 -16.09375) scale(0.7)"/>
    </g>
   </g>
   <g id="patch_9">
    <path d="M 664.872 29.18 
C 665.588048 29.18 666.274866 28.895511 666.781188 28.389188 
C 667.287511 27.882866 667.572 27.196048 667.572 26.48 
C 667.572 25.763952 667.287511 25.077134 666.781188 24.570812 
C 666.274866 24.064489 665.588048 23.78 664.872 23.78 
C 664.155952 23.78 663.469134 24.064489 662.962812 24.570812 
C 662.456489 25.077134 662.172 25.763952 662.172 26.48 
C 662.172 27.196048 662.456489 27.882866 662.962812 28.389188 
C 663.469134 28.895511 664.155952 29.18 664.872 29.18 
z
" clip-path="url(#p8d6b6ff94e)" style="fill: #ffffff; stroke: #000000; stroke-width: 2; stroke-linejoin: miter"/>
   </g>
   <g id="patch_10">
    <path d="M 916.872 29.18 
C 917.588048 29.18 918.274866 28.895511 918.781188 28.389188 
C 919.287511 27.882866 919.572 27.196048 919.572 26.48 
C 919.572 25.763952 919.287511 25.077134 918.781188 24.570812 
C 918.274866 24.064489 917.588048 23.78 916.872 23.78 
C 916.155952 23.78 915.469134 24.064489 914.962812 24.570812 
C 914.456489 25.077134 914.172 25.763952 914.172 26.48 
C 914.172 27.196048 914.456489 27.882866 914.962812 28.389188 
C 915.469134 28.895511 916.155952 29.18 916.872 29.18 
z
" clip-path="url(#p8d6b6ff94e)" style="fill: #ffffff; stroke: #000000; stroke-width: 2; stroke-linejoin: miter"/>
   </g>
  </g>
 </g>
 <defs>
  <clipPath id="p8d6b6ff94e">
   <rect x="0" y="-0" width="924.252" height="157.16"/>
  </clipPath>
 </defs>
</svg>
